<svg width="26" height="24" viewBox="0 0 26 24" fill="none" xmlns="http://www.w3.org/2000/svg">
<path d="M19.2436 0.0280151H6.75636C3.30653 0.0280151 0.5 2.83537 0.5 6.28622V17.7136C0.5 21.1645 3.30653 23.9718 6.75636 23.9718H19.2436C22.6935 23.9718 25.5 21.1645 25.5 17.7136V6.28622C25.5 2.83537 22.6935 0.0280151 19.2436 0.0280151ZM2.70705 6.28622C2.70705 4.05307 4.52387 2.23571 6.75636 2.23571H19.2436C21.4761 2.23571 23.293 4.05307 23.293 6.28622V17.7136C23.293 19.9468 21.4761 21.7641 19.2436 21.7641H6.75636C4.52387 21.7641 2.70705 19.9468 2.70705 17.7136V6.28622Z" fill="#482712"/>
<path d="M13 17.8198C16.2081 17.8198 18.8195 15.209 18.8195 11.9986C18.8195 8.78813 16.2095 6.17737 13 6.17737C9.79055 6.17737 7.18054 8.78813 7.18054 11.9986C7.18054 15.209 9.79055 17.8198 13 17.8198ZM13 8.38648C14.9922 8.38648 16.6125 10.0072 16.6125 12C16.6125 13.9927 14.9922 15.6135 13 15.6135C11.0079 15.6135 9.38759 13.9927 9.38759 12C9.38759 10.0072 11.0079 8.38648 13 8.38648Z" fill="#482712"/>
<path d="M19.3581 7.11791C20.222 7.11791 20.9261 6.415 20.9261 5.54946C20.9261 4.68392 20.2234 3.98102 19.3581 3.98102C18.4928 3.98102 17.7902 4.68392 17.7902 5.54946C17.7902 6.415 18.4928 7.11791 19.3581 7.11791Z" fill="#482712"/>
</svg>
