<svg width="289" height="80" viewBox="0 0 289 80" fill="none" xmlns="http://www.w3.org/2000/svg">
<path d="M77.4325 67.2468C69.995 73.9406 61.1447 74.6437 51.6556 74.5326H36.5478L71.5579 28.0045L61.6886 21.1899L17.2766 79.466H77.9025C83.9062 73.0995 85.7989 60.6037 85.892 51.9729H85.422C84.5591 57.323 81.2385 63.4408 77.4325 67.2468Z" fill="#F5F3EB"/>
<path d="M27.6158 0.0412979C48.9407 0.0412979 57.6557 0.0412979 92.2365 0.0412979C76.5941 20.8469 92.2365 0.0412979 76.5941 20.8469C76.6079 20.8469 75.6884 19.7593 75.582 19.6037C70.2309 12.4427 61.5996 8.18025 53.4612 5.02777C45.3493 1.93399 36.2972 0.594624 27.6209 0.594624C27.6209 0.594624 27.6209 0.594624 27.6158 0.0412979Z" fill="#F5F3EB"/>
<path d="M51.1143 6.15102C50.9098 6.13457 50.7054 6.11812 50.4948 6.10117C47.0176 5.85038 43.5448 5.88353 40.0595 5.86326C29.2817 5.83369 19.9493 9.59313 12.2007 17.0989C4.10705 25.2575 0.721469 38.0754 5.97921 48.6493C8.65815 53.992 16.4651 56.5011 16.4651 56.5011C16.4651 56.5011 8.27714 57.4549 3.88248 50.328C4.7326 53.2387 5.83023 55.6805 7.74974 58.0321C10.0252 60.8004 12.3554 62.7783 15.3967 64.6621C12.0194 64.5033 7.27989 60.4802 5.76235 59.0224C9.34483 67.8837 12.4921 70.1304 17.9815 73.8265C-1.89394 67.8507 -3.26644 35.4728 4.11747 22.5999C6.85407 17.4258 10.9792 13.1118 15.8667 9.91077C19.4038 7.56395 23.3339 6.00266 27.4011 4.83543C34.4291 2.92524 44.5194 3.10562 51.1143 6.15102Z" fill="#F5F3EB"/>
<path d="M41.3608 52.9445C32.4695 60.0575 24.7067 60.0145 12.0195 59.1684C18.6915 61.8324 27.7261 64.0075 34.2478 62.7249C29.1363 69.3067 23.6923 69.8758 15.576 68.0597C20.3643 71.4155 25.9007 72.8119 34.2478 71.6162L41.3608 52.9445Z" fill="#F5F3EB"/>
<path d="M14.6868 51.1662C24.5602 54.6255 30.663 52.691 36.0259 45.8314C35.1367 50.2771 31.364 53.0445 28.0237 54.0301C24.6739 55.0185 19.1324 54.7227 14.6868 51.1662Z" fill="#F5F3EB"/>
<path d="M54.1691 8.97072C62.8838 11.0218 71.3546 15.5458 76.1337 23.3809C77.4832 25.7452 78.5929 28.5383 78.3725 31.2942C76.0367 28.938 72.3547 25.5282 69.0096 22.9737C64.9897 19.9198 60.6824 17.4002 55.9729 15.5734C50.8332 13.6157 45.4275 13.1234 39.9709 13.1108C36.4696 13.1117 33.0737 13.4991 29.6812 14.3524C23.8652 16.0372 18.8414 19.1705 14.4568 23.3047C15.5759 20.9358 16.5796 19.6563 17.7466 18.5023C27.1925 9.16158 41.4145 5.90414 54.1691 8.97072Z" fill="#F5F3EB"/>
<path d="M28.0859 22.3651C31.5303 24.1642 34.506 27.7619 34.4305 31.7644C33.9656 31.1772 33.5757 30.5726 33.1968 29.9286C30.1415 25.051 23.7139 24.3667 19.1859 27.5935C17.2677 29.1994 16.0693 30.939 15.6317 33.6443C15.1298 36.7475 15.8243 39.1172 17.765 41.4061C19.4197 43.1012 21.0057 44.0143 23.3862 44.057C26.2399 43.9877 28.9129 43.1643 30.6707 40.9288C30.3771 45.6274 23.6993 48.0833 19.8615 47.2734C16.533 46.571 14.1265 44.6295 12.2832 41.8394C11.4856 40.5096 11.0827 39.2732 10.8081 37.7528C10.4234 33.4989 10.6239 29.4875 13.572 25.8568C17.3047 21.9259 22.9503 19.8236 28.0859 22.3651Z" fill="#F5F3EB"/>
<path d="M40.305 6.85572C40.1424 6.88147 39.9797 6.90722 39.8121 6.93374C31.5148 8.27837 24.1453 10.9439 17.7465 16.4901C13.7205 19.6811 10.6179 23.883 9.28712 28.9442C9.2017 29.2287 9.11628 29.5131 9.02827 29.8061C7.79604 34.8961 9.18958 40.1209 11.8295 44.4871C13.1719 46.5968 14.9277 48.2388 16.8066 49.8578C14.6868 49.3879 13.1522 47.8236 11.8573 46.5855C10.7389 45.4595 9.88314 44.1553 9.05213 42.8083C8.89341 42.5511 8.73468 42.2939 8.57115 42.029C6.98925 39.2065 6.57266 36.0071 6.57011 32.8215C6.56594 30.7035 6.8541 28.6417 7.40724 26.5944C8.94317 20.7634 15.091 14.3569 20.9107 11.1553C24.1222 9.37327 27.111 8.18878 30.6707 7.32569C31.9616 7.01266 37.7091 6.15143 40.305 6.85572Z" fill="#F5F3EB"/>
<path d="M32.5506 36.699C32.4374 33.5689 30.9419 31.2869 27.5425 31.4238C24.189 31.9245 22.5917 36.7367 25.971 38.3439C28.6814 38.8972 30.4497 36.2329 27.8509 34.5841C30.8343 35.0773 30.1278 38.4679 27.8509 39.0488C26.73 39.2457 25.7869 39.1843 24.8255 38.5495C23.9331 37.8062 23.4791 37.0854 23.3045 35.9178C23.2133 34.3912 23.5701 33.3926 24.5611 32.2343C28.0802 28.7754 34.2714 31.5317 32.5506 36.699Z" fill="#F5F3EB"/>
<path d="M68.4389 42.4976C70.9899 40.2037 73.6308 38.0212 76.2923 35.8523C77.7202 34.6881 79.1452 33.5204 80.57 32.3525C81.9755 31.2095 83.423 30.143 84.9098 29.1042C87.0046 27.6045 89.712 25.3574 91.8564 25.306C94.1802 25.2503 101.617 32.9257 100.484 36.5046C100.058 37.0353 91.5879 27.6781 90.7932 28.2167C90.2497 28.5851 99.8591 37.0172 99.2296 37.5293C98.6762 37.9358 90.0466 28.4294 89.5308 28.9487C89.015 29.468 98.5772 38.1206 97.9757 38.554C97.2741 39.0596 88.7896 29.1871 88.1642 29.6824C87.3549 30.3234 97.4023 39.0712 96.7218 39.5787C96.0413 40.0862 86.9915 30.2879 86.5075 30.6736C85.6362 31.3677 95.7487 39.9166 95.1801 40.5772C94.46 41.4137 85.8606 31.189 84.9401 31.9544C84.338 32.4551 94.5275 41.3719 93.8993 41.8842C93.0546 42.573 84.1768 32.4375 83.3984 32.9529C82.6201 33.4684 92.8501 42.7345 92.3319 43.165C91.6492 43.7323 82.6027 33.6588 82.1444 33.9787C81.2147 34.6276 91.7062 43.6775 91.078 44.1897C90.4498 44.702 81.0789 34.8494 80.577 35.2596C79.95 35.7719 90.4386 44.701 89.7753 45.278C89.112 45.855 79.95 35.7719 79.3231 36.2843C78.6961 36.7966 88.8832 45.9176 88.3699 46.4373C87.8538 46.9597 78.6714 36.8989 78.0692 37.309C77.4669 37.7191 87.5805 46.6734 87.0285 47.2376C86.4766 47.8018 77.4281 38.1447 76.7895 38.6161C76.1686 39.062 86.4071 47.9471 85.7489 48.5447C85.0906 49.1423 76.2633 39.1376 75.5356 39.6408C74.8079 40.1439 84.6609 49.1031 84.2072 49.5431C83.7104 50.025 74.9416 40.3555 74.2559 40.9479C73.6597 41.463 83.724 49.8759 82.9533 50.5678C82.3186 51.0352 73.6803 41.2361 73.0277 41.6902C72.2677 42.4751 82.4584 51.3279 81.9614 51.9012C81.4643 52.4744 72.2282 42.6926 71.7481 42.9972C70.8695 43.5547 81.1826 52.2191 80.7074 52.9259C80.3671 53.4321 71.043 43.8556 70.4684 44.3043C69.8938 44.7531 79.7833 53.1066 79.0393 53.7402C78.5841 54.1279 70.0143 44.8325 69.5022 45.3553C68.7973 46.0749 78.8161 54.5781 78.1996 54.9753C77.451 55.4575 68.918 45.9516 68.2225 46.6623C67.6267 47.2712 77.5893 55.3881 76.9457 55.9999C76.302 56.6118 67.9817 47.0519 67.2563 47.7133C66.5309 48.3746 76.276 56.3761 75.6917 57.0246C75.1075 57.6731 66.8339 48.4546 66.2644 49.0466C65.6949 49.6386 74.9259 57.4009 74.4378 58.0493C73.9497 58.6978 65.8607 49.8329 65.2725 50.3799C64.6842 50.9269 73.7443 58.673 73.1582 59.3564C72.6915 59.9006 65.0257 51.2918 64.5683 51.7395C63.9312 52.3631 72.8327 60.0406 72.1663 60.6898C71.6656 61.1774 64.455 52.9828 63.8384 53.3814C63.2218 53.78 71.4842 61.2472 70.9123 61.7145C70.3405 62.1818 63.5351 54.5823 63.1084 55.0234C62.6818 55.4645 69.8423 62.1864 69.6584 62.7392C69.5147 63.1712 67.8665 62.3514 66.9886 62.0019C64.126 60.8656 59.9335 59.8592 56.9414 61.0105C48.3189 65.2717 42.0915 71.0417 37.7355 74.5349C37.2541 74.5349 36.9532 74.5349 36.5473 74.5283C42.9231 65.2272 43.5201 64.6302 45.643 62.4468C53.3416 55.9291 60.9036 49.3116 68.4389 42.4976Z" fill="#F5F3EB"/>
<path d="M40.5905 48.8914C40.6332 47.3055 40.6992 45.1752 40.796 42.3065C40.2931 38.9733 39.9969 34.2592 37.561 29.8661C36.1317 27.2882 30.8952 22.766 34.0074 18.3015C35.6382 15.9906 38.8811 14.5963 41.2102 16.7309C43.8762 19.3461 44.404 22.6609 42.1573 26.1716C40.242 29.516 41.3397 37.3814 42.9236 40.4479C43.2995 40.5297 46.2011 28.5042 46.0918 27.4311C45.952 25.9905 45.203 24.8692 44.8828 23.4754C44.1914 20.4665 46.0839 16.0357 49.4803 15.4489C51.0994 15.1692 52.5895 15.8602 53.5132 16.6935C54.2949 17.3988 55.552 20.093 55.5376 21.002C55.5025 23.2084 54.5592 25.9629 52.6451 27.2469C47.3766 30.7342 46.3473 35.2609 45.5202 41.4349C45.4605 41.8557 45.4034 42.2589 45.3487 42.6451C40.5905 48.8914 45.3487 42.6451 40.5905 48.8914ZM53.6403 22.5731C54.0961 20.0608 52.543 17.677 50.7809 17.1978C49.5909 17.1022 47.5553 18.4287 46.8193 20.2662C46.2433 22.102 46.558 25.3048 48.3144 26.2698C50.2149 27.3139 53.2284 24.8437 53.6403 22.5731ZM42.0022 22.0473C42.0244 20.089 40.815 17.331 37.9162 17.2826C35.7076 17.2456 34.7489 19.455 34.7254 21.5292C34.7081 23.8524 36.5349 26.6822 38.5892 26.7165C40.0833 26.7415 41.983 23.7946 42.0022 22.0473Z" fill="#F5F3EB"/>
<path d="M131.565 23.04V18.12H150.015V23.04L138.371 40.342V41.08H150.015V46H131.565V41.121L143.209 23.778V23.04H131.565ZM155.682 46L161.955 18.12H172.697L178.97 46H173.312L172.205 40.957H162.447L161.34 46H155.682ZM166.342 22.794L163.513 36.037H171.139L168.31 22.794H166.342ZM191.622 36.652V46H185.964V18.12H196.788C203.348 18.12 206.628 21.1813 206.628 27.304C206.628 30.9393 205.261 33.618 202.528 35.34L206.505 46H200.314L197.075 36.652H191.622ZM196.87 31.814C198.209 31.814 199.207 31.404 199.863 30.584C200.519 29.764 200.847 28.6843 200.847 27.345C200.847 26.0057 200.491 24.9397 199.781 24.147C199.097 23.3543 198.1 22.958 196.788 22.958H191.622V31.814H196.87ZM214.668 46V18.12H220.326V46H214.668ZM229.68 46V18.12H239.233L245.957 41.08H246.367V18.12H252.025V46H242.718L235.748 23.04H235.338V46H229.68ZM259.051 46L265.324 18.12H276.066L282.339 46H276.681L275.574 40.957H265.816L264.709 46H259.051ZM269.711 22.794L266.882 36.037H274.508L271.679 22.794H269.711Z" fill="#F5F3EB"/>
<path d="M134.049 55.7327C134.649 55.7327 135.363 55.7993 136.189 55.9327L136.649 55.9927L136.589 57.0127C135.536 56.8793 134.756 56.8127 134.249 56.8127C133.063 56.8127 132.249 57.106 131.809 57.6927C131.369 58.266 131.149 59.3327 131.149 60.8927C131.149 62.4393 131.349 63.5193 131.749 64.1327C132.149 64.746 132.983 65.0527 134.249 65.0527L136.629 64.8727L136.669 65.8927C135.483 66.0527 134.603 66.1327 134.029 66.1327C132.443 66.1327 131.356 65.7393 130.769 64.9527C130.196 64.166 129.909 62.8127 129.909 60.8927C129.909 58.9727 130.223 57.6327 130.849 56.8727C131.489 56.1127 132.556 55.7327 134.049 55.7327ZM148.462 58.9127V64.2727C148.515 64.766 148.948 65.0593 149.762 65.1527L149.702 66.1127C148.675 66.1127 147.922 65.846 147.442 65.3127C146.188 65.8593 144.935 66.1327 143.682 66.1327C142.788 66.1327 142.108 65.8793 141.642 65.3727C141.175 64.8527 140.942 64.1193 140.942 63.1727C140.942 62.2127 141.175 61.506 141.642 61.0527C142.122 60.586 142.868 60.2993 143.882 60.1927L147.282 59.8527V58.9127C147.282 58.166 147.115 57.6327 146.782 57.3127C146.462 56.9793 146.028 56.8127 145.482 56.8127C144.628 56.8127 143.522 56.8927 142.162 57.0527L141.542 57.1127L141.482 56.1527C142.948 55.8727 144.228 55.7327 145.322 55.7327C146.428 55.7327 147.228 55.9927 147.722 56.5127C148.215 57.0327 148.462 57.8327 148.462 58.9127ZM142.182 63.0927C142.182 64.4393 142.735 65.1127 143.842 65.1127C144.322 65.1127 144.848 65.0593 145.422 64.9527C145.995 64.8327 146.448 64.7127 146.782 64.5927L147.282 64.4127V60.7927L144.022 61.1327C143.368 61.186 142.895 61.3727 142.602 61.6927C142.322 62.0127 142.182 62.4793 142.182 63.0927ZM159.982 65.9327V56.9927H156.162C156.042 59.046 155.936 60.4727 155.842 61.2727C155.749 62.0727 155.622 62.8993 155.462 63.7527C155.316 64.5927 155.076 65.1793 154.742 65.5127C154.409 65.846 153.809 66.0193 152.942 66.0327V65.0127C153.436 64.986 153.776 64.8593 153.962 64.6327C154.162 64.406 154.316 64.006 154.422 63.4327C154.649 62.246 154.816 60.5593 154.922 58.3727L155.042 55.9327H161.162V65.9327H159.982ZM166.147 60.9127C166.147 59.0327 166.46 57.6993 167.087 56.9127C167.727 56.126 168.807 55.7327 170.327 55.7327C171.86 55.7327 172.94 56.126 173.567 56.9127C174.207 57.6993 174.527 59.0327 174.527 60.9127C174.527 62.7927 174.234 64.1327 173.647 64.9327C173.074 65.7327 171.974 66.1327 170.347 66.1327C168.72 66.1327 167.614 65.7327 167.027 64.9327C166.44 64.1327 166.147 62.7927 166.147 60.9127ZM167.387 60.8727C167.387 62.4593 167.567 63.5593 167.927 64.1727C168.3 64.7727 169.1 65.0727 170.327 65.0727C171.567 65.0727 172.374 64.766 172.747 64.1527C173.12 63.5393 173.307 62.4527 173.307 60.8927C173.307 59.3193 173.094 58.246 172.667 57.6727C172.254 57.086 171.48 56.7927 170.347 56.7927C169.214 56.7927 168.434 57.0793 168.007 57.6527C167.594 58.226 167.387 59.2993 167.387 60.8727ZM179.514 55.9327H180.694V60.3727H186.234V55.9327H187.414V65.9327H186.234V61.4327H180.694V65.9327H179.514V55.9327ZM200.796 60.3327L202.496 60.2927L205.576 55.9327H206.956L203.536 60.7527L207.116 65.9327H205.716L202.516 61.3527L200.796 61.3927V65.9327H199.616V55.9327H200.796V60.3327ZM211.615 70.4327V55.9327H212.795V56.6927C213.835 56.0527 214.929 55.7327 216.075 55.7327C217.235 55.7327 218.095 56.1393 218.655 56.9527C219.229 57.766 219.515 59.0927 219.515 60.9327C219.515 62.7593 219.182 64.086 218.515 64.9127C217.849 65.726 216.742 66.1327 215.195 66.1327C214.369 66.1327 213.569 66.046 212.795 65.8727V70.4327H211.615ZM215.835 56.8127C215.395 56.8127 214.922 56.886 214.415 57.0327C213.909 57.1793 213.515 57.3327 213.235 57.4927L212.795 57.7127V64.8327C213.702 64.9927 214.489 65.0727 215.155 65.0727C216.302 65.0727 217.109 64.7527 217.575 64.1127C218.042 63.4593 218.275 62.3927 218.275 60.9127C218.275 59.4193 218.069 58.366 217.655 57.7527C217.255 57.126 216.649 56.8127 215.835 56.8127ZM231.564 58.9127V64.2727C231.617 64.766 232.051 65.0593 232.864 65.1527L232.804 66.1127C231.777 66.1127 231.024 65.846 230.544 65.3127C229.291 65.8593 228.037 66.1327 226.784 66.1327C225.891 66.1327 225.211 65.8793 224.744 65.3727C224.277 64.8527 224.044 64.1193 224.044 63.1727C224.044 62.2127 224.277 61.506 224.744 61.0527C225.224 60.586 225.971 60.2993 226.984 60.1927L230.384 59.8527V58.9127C230.384 58.166 230.217 57.6327 229.884 57.3127C229.564 56.9793 229.131 56.8127 228.584 56.8127C227.731 56.8127 226.624 56.8927 225.264 57.0527L224.644 57.1127L224.584 56.1527C226.051 55.8727 227.331 55.7327 228.424 55.7327C229.531 55.7327 230.331 55.9927 230.824 56.5127C231.317 57.0327 231.564 57.8327 231.564 58.9127ZM225.284 63.0927C225.284 64.4393 225.837 65.1127 226.944 65.1127C227.424 65.1127 227.951 65.0593 228.524 64.9527C229.097 64.8327 229.551 64.7127 229.884 64.5927L230.384 64.4127V60.7927L227.124 61.1327C226.471 61.186 225.997 61.3727 225.704 61.6927C225.424 62.0127 225.284 62.4793 225.284 63.0927ZM240.985 55.7327C241.585 55.7327 242.298 55.7993 243.125 55.9327L243.585 55.9927L243.525 57.0127C242.471 56.8793 241.691 56.8127 241.185 56.8127C239.998 56.8127 239.185 57.106 238.745 57.6927C238.305 58.266 238.085 59.3327 238.085 60.8927C238.085 62.4393 238.285 63.5193 238.685 64.1327C239.085 64.746 239.918 65.0527 241.185 65.0527L243.565 64.8727L243.605 65.8927C242.418 66.0527 241.538 66.1327 240.965 66.1327C239.378 66.1327 238.291 65.7393 237.705 64.9527C237.131 64.166 236.845 62.8127 236.845 60.8927C236.845 58.9727 237.158 57.6327 237.785 56.8727C238.425 56.1127 239.491 55.7327 240.985 55.7327ZM248.097 60.9127C248.097 59.0327 248.41 57.6993 249.037 56.9127C249.677 56.126 250.757 55.7327 252.277 55.7327C253.81 55.7327 254.89 56.126 255.517 56.9127C256.157 57.6993 256.477 59.0327 256.477 60.9127C256.477 62.7927 256.184 64.1327 255.597 64.9327C255.024 65.7327 253.924 66.1327 252.297 66.1327C250.67 66.1327 249.564 65.7327 248.977 64.9327C248.39 64.1327 248.097 62.7927 248.097 60.9127ZM249.337 60.8727C249.337 62.4593 249.517 63.5593 249.877 64.1727C250.25 64.7727 251.05 65.0727 252.277 65.0727C253.517 65.0727 254.324 64.766 254.697 64.1527C255.07 63.5393 255.257 62.4527 255.257 60.8927C255.257 59.3193 255.044 58.246 254.617 57.6727C254.204 57.086 253.43 56.7927 252.297 56.7927C251.164 56.7927 250.384 57.0793 249.957 57.6527C249.544 58.226 249.337 59.2993 249.337 60.8727ZM260.568 55.9327H268.948V56.9927H265.348V65.9327H264.168V56.9927H260.568V55.9327ZM277.419 61.1327H274.619V64.8727H277.419C278.099 64.8727 278.572 64.7327 278.839 64.4527C279.105 64.1727 279.239 63.6993 279.239 63.0327C279.239 62.366 279.105 61.886 278.839 61.5927C278.572 61.286 278.099 61.1327 277.419 61.1327ZM277.439 65.9327H273.439V55.9327H274.619V60.0727H277.439C279.412 60.0727 280.399 61.0527 280.399 63.0127C280.399 64.0527 280.159 64.7993 279.679 65.2527C279.212 65.706 278.465 65.9327 277.439 65.9327ZM281.599 55.9327H282.779V65.9327H281.599V55.9327Z" fill="#F5F3EB"/>
</svg>
