<svg width="31" height="46" viewBox="0 0 31 46" fill="none" xmlns="http://www.w3.org/2000/svg">
<path d="M29.0533 41.0934C29.0533 41.3242 28.9103 41.7108 28.2614 42.2118C27.6262 42.7021 26.6444 43.187 25.3417 43.6124C22.7473 44.4595 19.1003 45.0001 15.0267 45.0001C10.953 45.0001 7.306 44.4595 4.71161 43.6124C3.40895 43.187 2.42715 42.7021 1.79196 42.2118C1.14307 41.7108 1 41.3242 1 41.0934C1 40.8627 1.14307 40.476 1.79196 39.9751C2.42715 39.4847 3.40895 38.9999 4.71161 38.5745C7.306 37.7274 10.953 37.1868 15.0267 37.1868C19.1003 37.1868 22.7473 37.7274 25.3417 38.5745C26.6444 38.9999 27.6262 39.4847 28.2614 39.9751C28.9103 40.476 29.0533 40.8627 29.0533 41.0934Z" fill="#F5F3EB" stroke="#482712" stroke-width="2"/>
<path d="M27.8267 13.8C27.8267 19.309 24.5311 25.8393 21.0891 31.1171C19.386 33.7284 17.6812 35.9828 16.4016 37.5846C15.853 38.2714 15.3834 38.8372 15.0267 39.2586C14.67 38.8372 14.2003 38.2714 13.6518 37.5846C12.3722 35.9828 10.6674 33.7284 8.9643 31.1171C5.52227 25.8393 2.22668 19.309 2.22668 13.8C2.22668 6.73076 7.95744 1 15.0267 1C22.0959 1 27.8267 6.73076 27.8267 13.8Z" fill="#F5F3EB" stroke="#482712" stroke-width="2" stroke-linejoin="round"/>
<circle cx="14.72" cy="14.72" r="4.52" fill="#F5F3EB" stroke="#482712" stroke-width="2"/>
</svg>
