<svg width="251" height="35" viewBox="0 0 251 35" fill="none" xmlns="http://www.w3.org/2000/svg">
<path d="M250.354 20.8536C250.549 20.6583 250.549 20.3417 250.354 20.1464L247.172 16.9645C246.976 16.7692 246.66 16.7692 246.464 16.9645C246.269 17.1597 246.269 17.4763 246.464 17.6716L249.293 20.5L246.464 23.3284C246.269 23.5237 246.269 23.8403 246.464 24.0355C246.66 24.2308 246.976 24.2308 247.172 24.0355L250.354 20.8536ZM115 21H250V20H115V21Z" fill="white"/>
<path d="M3.62451 25.5H1.85449L3.19727 21.02C3.52279 19.9377 3.77507 18.9326 3.9541 18.0049C4.13314 17.069 4.22266 16.3081 4.22266 15.7222C4.22266 15.4699 4.18197 15.2827 4.10059 15.1606C4.01921 15.0386 3.89307 14.9775 3.72217 14.9775C3.33154 14.9775 2.92871 15.2624 2.51367 15.832C2.10677 16.4017 1.6429 17.3172 1.12207 18.5786L0.67041 18.4199C1.16683 17.0202 1.71208 15.9663 2.30615 15.2583C2.90837 14.5503 3.55534 14.1963 4.24707 14.1963C4.72721 14.1963 5.09342 14.3672 5.3457 14.709C5.59798 15.0426 5.72412 15.5309 5.72412 16.1738C5.72412 16.4912 5.6875 16.8818 5.61426 17.3457C5.54915 17.8014 5.43522 18.3874 5.27246 19.1035C6.05371 17.5085 6.85124 16.2918 7.66504 15.4536C8.47884 14.6154 9.2723 14.1963 10.0454 14.1963C10.6476 14.1963 11.1278 14.4079 11.4858 14.8311C11.8439 15.2542 12.0229 15.828 12.0229 16.5522C12.0229 16.8289 11.9945 17.1219 11.9375 17.4312C11.8887 17.7404 11.8114 18.0618 11.7056 18.3955L10.0454 23.5225C9.95589 23.8398 9.89486 24.0758 9.8623 24.2305C9.83789 24.3851 9.82568 24.5234 9.82568 24.6455C9.82568 24.8083 9.87451 24.9425 9.97217 25.0483C10.0698 25.146 10.196 25.1948 10.3506 25.1948C10.7412 25.1948 11.1562 24.9181 11.5957 24.3647C12.0433 23.8114 12.5438 22.9487 13.0972 21.7769L13.5 21.9966L13.0239 23.0708C12.6333 23.9741 12.1654 24.6659 11.6201 25.146C11.0749 25.618 10.4849 25.854 9.8501 25.854C9.3374 25.854 8.94271 25.7035 8.66602 25.4023C8.38932 25.0931 8.25098 24.6496 8.25098 24.0718C8.25098 23.8195 8.2876 23.5265 8.36084 23.1929C8.43408 22.8592 8.56429 22.4035 8.75146 21.8257L10.0942 17.8462C10.2407 17.4149 10.3465 17.0405 10.4116 16.7231C10.4849 16.4058 10.5215 16.1331 10.5215 15.9053C10.5215 15.596 10.4523 15.3641 10.314 15.2095C10.1838 15.0549 9.98031 14.9775 9.70361 14.9775C8.85726 14.9775 7.95394 15.7181 6.99365 17.1992C6.03337 18.6722 5.13411 20.7311 4.2959 23.376L3.62451 25.5ZM18.3218 25.854C17.272 25.854 16.4541 25.5285 15.8682 24.8774C15.2904 24.2264 15.0015 23.319 15.0015 22.1553C15.0015 21.195 15.1561 20.251 15.4653 19.3232C15.7746 18.3955 16.2262 17.5207 16.8203 16.6987C17.3981 15.9093 18.041 15.2949 18.749 14.8555C19.4652 14.416 20.1813 14.1963 20.8975 14.1963C21.8659 14.1963 22.6349 14.5828 23.2046 15.356C23.7824 16.1209 24.0713 17.1504 24.0713 18.4443C24.0713 19.3477 23.9045 20.2673 23.5708 21.2031C23.2371 22.139 22.7611 23.0138 22.1426 23.8276C21.6624 24.4705 21.0887 24.971 20.4214 25.3291C19.7541 25.679 19.0542 25.854 18.3218 25.854ZM16.6494 23.1807C16.6494 23.8643 16.804 24.4014 17.1133 24.792C17.4307 25.1826 17.866 25.3779 18.4194 25.3779C18.9159 25.3779 19.3757 25.203 19.7988 24.853C20.2301 24.5031 20.5964 24.0026 20.8975 23.3516C21.3532 22.3831 21.7194 21.3293 21.9961 20.1899C22.2809 19.0425 22.4233 18.0374 22.4233 17.1748C22.4233 16.3854 22.2809 15.7791 21.9961 15.356C21.7194 14.9328 21.3206 14.7212 20.7998 14.7212C20.3034 14.7212 19.8273 14.945 19.3716 15.3926C18.924 15.832 18.4886 16.4993 18.0654 17.3945C17.6423 18.3385 17.3005 19.3517 17.04 20.4341C16.7796 21.5164 16.6494 22.432 16.6494 23.1807ZM29.5522 7.72656C31.2531 8.13346 32.604 9.14665 33.605 10.7661C34.606 12.3774 35.1064 14.3631 35.1064 16.7231C35.1064 19.311 34.5368 21.4798 33.3975 23.2295C32.2581 24.9792 30.8787 25.854 29.2593 25.854C28.2095 25.854 27.3916 25.5326 26.8057 24.8896C26.2279 24.2386 25.939 23.3271 25.939 22.1553C25.939 21.195 26.0936 20.251 26.4028 19.3232C26.7121 18.3955 27.1637 17.5207 27.7578 16.6987C28.36 15.8931 29.0111 15.2746 29.7109 14.8433C30.4108 14.4119 31.1188 14.1963 31.835 14.1963C32.0791 14.1963 32.3192 14.2288 32.5552 14.2939C32.7993 14.3509 33.0516 14.4445 33.312 14.5747C33.312 13.4761 33.133 12.4873 32.7749 11.6084C32.4168 10.7214 31.8797 9.95231 31.1636 9.30127C30.9032 9.05713 30.5451 8.79264 30.0894 8.50781C29.6418 8.22298 29.4139 8.01546 29.4058 7.88525L29.5522 7.72656ZM27.5869 23.0708C27.5869 23.8195 27.7375 24.3932 28.0386 24.792C28.3397 25.1826 28.7791 25.3779 29.3569 25.3779C29.8534 25.3779 30.305 25.2111 30.7119 24.8774C31.1188 24.5356 31.4932 24.0189 31.835 23.3271C32.2907 22.4157 32.6569 21.3984 32.9336 20.2754C33.2184 19.1442 33.3608 18.1107 33.3608 17.1748C33.3608 16.3691 33.2266 15.7588 32.958 15.3438C32.6895 14.9287 32.2907 14.7212 31.7617 14.7212C31.2572 14.7212 30.7689 14.9491 30.2969 15.4048C29.833 15.8605 29.4017 16.5238 29.0029 17.3945C28.5716 18.3548 28.2257 19.3599 27.9653 20.4097C27.7131 21.4595 27.5869 22.3465 27.5869 23.0708ZM38.2192 29.4795C38.1216 29.862 38.0483 30.1834 37.9995 30.4438C37.9507 30.7043 37.9263 30.8996 37.9263 31.0298C37.9263 31.3309 38.0402 31.5425 38.2681 31.6646C38.4959 31.7948 38.9517 31.8802 39.6353 31.9209L39.4766 32.3726H33.9712L34.0688 31.9575C34.7606 31.9412 35.2651 31.7826 35.5825 31.4814C35.8918 31.1803 36.1969 30.4276 36.498 29.2231L39.916 15.832L39.8916 15.8442C37.9303 17.4149 36.8561 18.7414 36.6689 19.8237L36.1685 19.7505C36.2417 19.1808 36.4289 18.6519 36.73 18.1636C37.0392 17.6753 37.5194 17.1626 38.1704 16.6255C38.2925 16.5278 38.4674 16.3936 38.6953 16.2227C39.6556 15.4821 40.2456 14.6764 40.4653 13.8057L41.1978 10.9248C41.2466 10.7214 41.3076 10.583 41.3809 10.5098C41.4541 10.4365 41.5762 10.3999 41.7471 10.3999C42.1133 10.3999 42.3737 10.4284 42.5283 10.4854C42.6911 10.5342 42.7725 10.6237 42.7725 10.7539C42.7725 10.8027 42.7562 10.8923 42.7236 11.0225C42.6992 11.1445 42.6667 11.2951 42.626 11.4741L41.0146 17.5288C41.6413 16.4058 42.2638 15.5757 42.8823 15.0386C43.509 14.4933 44.1559 14.2207 44.8232 14.2207C45.637 14.2207 46.2881 14.5422 46.7764 15.1851C47.2728 15.8198 47.521 16.6743 47.521 17.7485C47.521 18.66 47.3298 19.6366 46.9473 20.6782C46.5729 21.7118 46.0562 22.668 45.397 23.5469C44.811 24.32 44.1844 24.9019 43.5171 25.2925C42.8498 25.6831 42.1499 25.8784 41.4175 25.8784C40.9536 25.8784 40.563 25.7726 40.2456 25.561C39.9282 25.3494 39.68 25.028 39.501 24.5967L38.2192 29.4795ZM39.8672 23.5225C39.8672 24.0758 39.9893 24.5153 40.2334 24.8408C40.4857 25.1663 40.8153 25.3291 41.2222 25.3291C41.7023 25.3291 42.1825 25.1175 42.6626 24.6943C43.1427 24.2712 43.5944 23.6567 44.0176 22.8511C44.5303 21.8989 44.9494 20.8369 45.2749 19.665C45.6086 18.4932 45.7754 17.5125 45.7754 16.7231C45.7754 16.1047 45.6533 15.6408 45.4092 15.3315C45.1732 15.0142 44.8273 14.8555 44.3716 14.8555C43.981 14.8555 43.57 15.0508 43.1387 15.4414C42.7074 15.8239 42.2598 16.3936 41.7959 17.1504C41.1937 18.1514 40.7217 19.2174 40.3799 20.3486C40.0381 21.4798 39.8672 22.5378 39.8672 23.5225ZM52.5259 25.854C51.4761 25.854 50.6582 25.5285 50.0723 24.8774C49.4945 24.2264 49.2056 23.319 49.2056 22.1553C49.2056 21.195 49.3602 20.251 49.6694 19.3232C49.9787 18.3955 50.4303 17.5207 51.0244 16.6987C51.6022 15.9093 52.2451 15.2949 52.9531 14.8555C53.6693 14.416 54.3854 14.1963 55.1016 14.1963C56.07 14.1963 56.839 14.5828 57.4087 15.356C57.9865 16.1209 58.2754 17.1504 58.2754 18.4443C58.2754 19.3477 58.1086 20.2673 57.7749 21.2031C57.4412 22.139 56.9652 23.0138 56.3467 23.8276C55.8665 24.4705 55.2928 24.971 54.6255 25.3291C53.9582 25.679 53.2583 25.854 52.5259 25.854ZM50.8535 23.1807C50.8535 23.8643 51.0081 24.4014 51.3174 24.792C51.6348 25.1826 52.0701 25.3779 52.6235 25.3779C53.12 25.3779 53.5798 25.203 54.0029 24.853C54.4342 24.5031 54.8005 24.0026 55.1016 23.3516C55.5573 22.3831 55.9235 21.3293 56.2002 20.1899C56.485 19.0425 56.6274 18.0374 56.6274 17.1748C56.6274 16.3854 56.485 15.7791 56.2002 15.356C55.9235 14.9328 55.5247 14.7212 55.0039 14.7212C54.5075 14.7212 54.0314 14.945 53.5757 15.3926C53.1281 15.832 52.6927 16.4993 52.2695 17.3945C51.8464 18.3385 51.5046 19.3517 51.2441 20.4341C50.9837 21.5164 50.8535 22.432 50.8535 23.1807ZM61.5591 17.6509C62.1857 16.536 62.8815 15.6815 63.6465 15.0874C64.4196 14.4933 65.2171 14.1963 66.0391 14.1963C66.9831 14.1963 67.748 14.5706 68.334 15.3193C68.9199 16.068 69.2129 17.0527 69.2129 18.2734C69.2129 20.2998 68.6351 22.0698 67.4795 23.5835C66.332 25.0972 64.9933 25.854 63.4634 25.854C62.438 25.854 61.6527 25.5366 61.1074 24.9019C60.5622 24.2671 60.2896 23.3516 60.2896 22.1553C60.2896 21.0648 60.4808 19.7301 60.8633 18.1514C61.2458 16.5726 61.7788 14.9572 62.4624 13.3052C62.8042 12.4995 63.1785 11.7915 63.5854 11.1812C64.0005 10.5627 64.3993 10.111 64.7817 9.82617C65.2131 9.50065 65.8153 9.20768 66.5884 8.94727C67.3615 8.68685 67.8783 8.47933 68.1387 8.32471C68.3177 8.21891 68.4967 8.05615 68.6758 7.83643C68.863 7.60856 69.0013 7.49463 69.0908 7.49463C69.1722 7.50277 69.2292 7.52718 69.2617 7.56787C69.2943 7.60856 69.3105 7.6696 69.3105 7.75098C68.9769 9.2321 67.9393 10.29 66.1978 10.9248C65.7583 11.0876 65.4287 11.2218 65.209 11.3276C64.3138 11.7427 63.5692 12.467 62.9751 13.5005C62.381 14.534 61.909 15.9175 61.5591 17.6509ZM61.791 23.0708C61.791 23.8195 61.9416 24.3932 62.2427 24.792C62.5438 25.1826 62.9832 25.3779 63.561 25.3779C64.0575 25.3779 64.5091 25.2111 64.916 24.8774C65.3229 24.5356 65.6973 24.0189 66.0391 23.3271C66.4948 22.4157 66.861 21.3984 67.1377 20.2754C67.4225 19.1442 67.5649 18.1107 67.5649 17.1748C67.5649 16.3691 67.4307 15.7588 67.1621 15.3438C66.8936 14.9287 66.4948 14.7212 65.9658 14.7212C65.4613 14.7212 64.973 14.9491 64.501 15.4048C64.0371 15.8605 63.6058 16.5238 63.207 17.3945C62.7757 18.3548 62.4299 19.3599 62.1694 20.4097C61.9172 21.4595 61.791 22.3465 61.791 23.0708ZM83.3242 21.9966L82.7993 23.0708C82.3029 24.0718 81.8105 24.7879 81.3223 25.2192C80.8421 25.6424 80.2847 25.854 79.6499 25.854C79.1372 25.854 78.7425 25.7035 78.4658 25.4023C78.1891 25.0931 78.0508 24.6496 78.0508 24.0718C78.0508 23.6567 78.1891 23.0016 78.4658 22.1064C78.5065 21.9762 78.535 21.8826 78.5513 21.8257L79.0762 20.1533H75.0967L73.3755 25.5H71.6055L74.4253 16.479C74.4985 16.2593 74.5514 16.0599 74.584 15.8809C74.6247 15.6937 74.645 15.5431 74.645 15.4292C74.645 15.2257 74.6003 15.0711 74.5107 14.9653C74.4212 14.8514 74.291 14.7944 74.1201 14.7944C73.7051 14.7944 73.286 15.0549 72.8628 15.5757C72.4478 16.0965 71.9513 16.9795 71.3735 18.2246L70.9463 18.0049L71.4712 16.9307C71.9757 15.9134 72.4681 15.1973 72.9482 14.7822C73.4284 14.359 73.9858 14.1475 74.6206 14.1475C75.1414 14.1475 75.5361 14.3021 75.8047 14.6113C76.0814 14.9124 76.2197 15.3519 76.2197 15.9297C76.2197 16.3773 76.0814 17.0405 75.8047 17.9194C75.7721 18.0252 75.7437 18.1107 75.7192 18.1758L75.3042 19.5308H79.2959L80.895 14.5015H82.6772L79.8452 23.5225C79.7638 23.8154 79.7069 24.0474 79.6743 24.2183C79.6418 24.381 79.6255 24.5234 79.6255 24.6455C79.6255 24.8164 79.6702 24.9507 79.7598 25.0483C79.8574 25.146 79.9876 25.1948 80.1504 25.1948C80.5573 25.1948 80.9683 24.9425 81.3833 24.438C81.7983 23.9334 82.3029 23.0464 82.897 21.7769L83.3242 21.9966ZM92.2109 22.4238C91.5355 23.5957 90.8153 24.4624 90.0503 25.0239C89.2935 25.5773 88.4552 25.854 87.5356 25.854C86.73 25.854 86.0993 25.5936 85.6436 25.0728C85.1878 24.5438 84.96 23.8195 84.96 22.8999C84.96 22.1593 85.0861 21.3822 85.3384 20.5684C85.5907 19.7464 85.9487 18.9652 86.4126 18.2246C87.1694 16.9958 88.0076 16.0192 88.9272 15.2949C89.8468 14.5625 90.681 14.1963 91.4297 14.1963C91.9831 14.1963 92.4307 14.3672 92.7725 14.709C93.1143 15.0426 93.2852 15.4821 93.2852 16.0273C93.2852 17.0446 92.7765 17.9927 91.7593 18.8716C90.742 19.7505 89.208 20.5602 87.1572 21.3008L86.9619 22.1431C86.8887 22.4523 86.8317 22.7371 86.791 22.9976C86.7585 23.258 86.7381 23.494 86.73 23.7056C86.73 24.2264 86.8398 24.617 87.0596 24.8774C87.2793 25.1297 87.613 25.2559 88.0605 25.2559C88.6221 25.2559 89.208 25.0036 89.8184 24.499C90.4368 23.9863 91.092 23.2132 91.7837 22.1797L92.2109 22.4238ZM87.3403 20.7026C88.6831 20.1493 89.798 19.3843 90.6851 18.4077C91.5721 17.423 92.0156 16.5197 92.0156 15.6978C92.0156 15.3885 91.9342 15.1403 91.7715 14.9531C91.6087 14.766 91.3971 14.6724 91.1367 14.6724C90.4857 14.6724 89.8062 15.2257 89.0981 16.3325C88.3901 17.4393 87.8042 18.896 87.3403 20.7026ZM101.781 22.4238C101.106 23.5957 100.386 24.4624 99.6206 25.0239C98.8638 25.5773 98.0256 25.854 97.106 25.854C96.3003 25.854 95.6696 25.5936 95.2139 25.0728C94.7581 24.5438 94.5303 23.8195 94.5303 22.8999C94.5303 22.1593 94.6564 21.3822 94.9087 20.5684C95.161 19.7464 95.519 18.9652 95.9829 18.2246C96.7397 16.9958 97.578 16.0192 98.4976 15.2949C99.4172 14.5625 100.251 14.1963 101 14.1963C101.553 14.1963 102.001 14.3672 102.343 14.709C102.685 15.0426 102.855 15.4821 102.855 16.0273C102.855 17.0446 102.347 17.9927 101.33 18.8716C100.312 19.7505 98.7783 20.5602 96.7275 21.3008L96.5322 22.1431C96.459 22.4523 96.402 22.7371 96.3613 22.9976C96.3288 23.258 96.3084 23.494 96.3003 23.7056C96.3003 24.2264 96.4102 24.617 96.6299 24.8774C96.8496 25.1297 97.1833 25.2559 97.6309 25.2559C98.1924 25.2559 98.7783 25.0036 99.3887 24.499C100.007 23.9863 100.662 23.2132 101.354 22.1797L101.781 22.4238ZM96.9106 20.7026C98.2534 20.1493 99.3683 19.3843 100.255 18.4077C101.142 17.423 101.586 16.5197 101.586 15.6978C101.586 15.3885 101.505 15.1403 101.342 14.9531C101.179 14.766 100.967 14.6724 100.707 14.6724C100.056 14.6724 99.3765 15.2257 98.6685 16.3325C97.9604 17.4393 97.3745 18.896 96.9106 20.7026Z" fill="white"/>
</svg>
