<svg width="103" height="25" viewBox="0 0 103 25" fill="none" xmlns="http://www.w3.org/2000/svg">
<path d="M3.62451 18H1.85449L3.19727 13.52C3.52279 12.4377 3.77507 11.4326 3.9541 10.5049C4.13314 9.56901 4.22266 8.80811 4.22266 8.22217C4.22266 7.96989 4.18197 7.78271 4.10059 7.66064C4.01921 7.53857 3.89307 7.47754 3.72217 7.47754C3.33154 7.47754 2.92871 7.76237 2.51367 8.33203C2.10677 8.90169 1.6429 9.81722 1.12207 11.0786L0.67041 10.9199C1.16683 9.52018 1.71208 8.46631 2.30615 7.7583C2.90837 7.05029 3.55534 6.69629 4.24707 6.69629C4.72721 6.69629 5.09342 6.86719 5.3457 7.20898C5.59798 7.54264 5.72412 8.03092 5.72412 8.67383C5.72412 8.99121 5.6875 9.38184 5.61426 9.8457C5.54915 10.3014 5.43522 10.8874 5.27246 11.6035C6.05371 10.0085 6.85124 8.79183 7.66504 7.95361C8.47884 7.1154 9.2723 6.69629 10.0454 6.69629C10.6476 6.69629 11.1278 6.90788 11.4858 7.33105C11.8439 7.75423 12.0229 8.32796 12.0229 9.05225C12.0229 9.32894 11.9945 9.62191 11.9375 9.93115C11.8887 10.2404 11.8114 10.5618 11.7056 10.8955L10.0454 16.0225C9.95589 16.3398 9.89486 16.5758 9.8623 16.7305C9.83789 16.8851 9.82568 17.0234 9.82568 17.1455C9.82568 17.3083 9.87451 17.4425 9.97217 17.5483C10.0698 17.646 10.196 17.6948 10.3506 17.6948C10.7412 17.6948 11.1562 17.4181 11.5957 16.8647C12.0433 16.3114 12.5438 15.4487 13.0972 14.2769L13.5 14.4966L13.0239 15.5708C12.6333 16.4741 12.1654 17.1659 11.6201 17.646C11.0749 18.118 10.4849 18.354 9.8501 18.354C9.3374 18.354 8.94271 18.2035 8.66602 17.9023C8.38932 17.5931 8.25098 17.1496 8.25098 16.5718C8.25098 16.3195 8.2876 16.0265 8.36084 15.6929C8.43408 15.3592 8.56429 14.9035 8.75146 14.3257L10.0942 10.3462C10.2407 9.91488 10.3465 9.54053 10.4116 9.22314C10.4849 8.90576 10.5215 8.63314 10.5215 8.40527C10.5215 8.09603 10.4523 7.8641 10.314 7.70947C10.1838 7.55485 9.98031 7.47754 9.70361 7.47754C8.85726 7.47754 7.95394 8.2181 6.99365 9.69922C6.03337 11.1722 5.13411 13.2311 4.2959 15.876L3.62451 18ZM18.3218 18.354C17.272 18.354 16.4541 18.0285 15.8682 17.3774C15.2904 16.7264 15.0015 15.819 15.0015 14.6553C15.0015 13.695 15.1561 12.751 15.4653 11.8232C15.7746 10.8955 16.2262 10.0207 16.8203 9.19873C17.3981 8.40934 18.041 7.79492 18.749 7.35547C19.4652 6.91602 20.1813 6.69629 20.8975 6.69629C21.8659 6.69629 22.6349 7.08285 23.2046 7.85596C23.7824 8.62093 24.0713 9.65039 24.0713 10.9443C24.0713 11.8477 23.9045 12.7673 23.5708 13.7031C23.2371 14.639 22.7611 15.5138 22.1426 16.3276C21.6624 16.9705 21.0887 17.471 20.4214 17.8291C19.7541 18.179 19.0542 18.354 18.3218 18.354ZM16.6494 15.6807C16.6494 16.3643 16.804 16.9014 17.1133 17.292C17.4307 17.6826 17.866 17.8779 18.4194 17.8779C18.9159 17.8779 19.3757 17.703 19.7988 17.353C20.2301 17.0031 20.5964 16.5026 20.8975 15.8516C21.3532 14.8831 21.7194 13.8293 21.9961 12.6899C22.2809 11.5425 22.4233 10.5374 22.4233 9.6748C22.4233 8.88542 22.2809 8.27913 21.9961 7.85596C21.7194 7.43278 21.3206 7.22119 20.7998 7.22119C20.3034 7.22119 19.8273 7.44499 19.3716 7.89258C18.924 8.33203 18.4886 8.99935 18.0654 9.89453C17.6423 10.8385 17.3005 11.8517 17.04 12.9341C16.7796 14.0164 16.6494 14.932 16.6494 15.6807ZM29.5522 0.226562C31.2531 0.633464 32.604 1.64665 33.605 3.26611C34.606 4.87744 35.1064 6.86312 35.1064 9.22314C35.1064 11.811 34.5368 13.9798 33.3975 15.7295C32.2581 17.4792 30.8787 18.354 29.2593 18.354C28.2095 18.354 27.3916 18.0326 26.8057 17.3896C26.2279 16.7386 25.939 15.8271 25.939 14.6553C25.939 13.695 26.0936 12.751 26.4028 11.8232C26.7121 10.8955 27.1637 10.0207 27.7578 9.19873C28.36 8.39307 29.0111 7.77458 29.7109 7.34326C30.4108 6.91195 31.1188 6.69629 31.835 6.69629C32.0791 6.69629 32.3192 6.72884 32.5552 6.79395C32.7993 6.85091 33.0516 6.9445 33.312 7.07471C33.312 5.97607 33.133 4.9873 32.7749 4.1084C32.4168 3.22135 31.8797 2.45231 31.1636 1.80127C30.9032 1.55713 30.5451 1.29264 30.0894 1.00781C29.6418 0.722982 29.4139 0.515462 29.4058 0.385254L29.5522 0.226562ZM27.5869 15.5708C27.5869 16.3195 27.7375 16.8932 28.0386 17.292C28.3397 17.6826 28.7791 17.8779 29.3569 17.8779C29.8534 17.8779 30.305 17.7111 30.7119 17.3774C31.1188 17.0356 31.4932 16.5189 31.835 15.8271C32.2907 14.9157 32.6569 13.8984 32.9336 12.7754C33.2184 11.6442 33.3608 10.6107 33.3608 9.6748C33.3608 8.86914 33.2266 8.25879 32.958 7.84375C32.6895 7.42871 32.2907 7.22119 31.7617 7.22119C31.2572 7.22119 30.7689 7.44906 30.2969 7.90479C29.833 8.36051 29.4017 9.02376 29.0029 9.89453C28.5716 10.8548 28.2257 11.8599 27.9653 12.9097C27.7131 13.9595 27.5869 14.8465 27.5869 15.5708ZM38.2192 21.9795C38.1216 22.362 38.0483 22.6834 37.9995 22.9438C37.9507 23.2043 37.9263 23.3996 37.9263 23.5298C37.9263 23.8309 38.0402 24.0425 38.2681 24.1646C38.4959 24.2948 38.9517 24.3802 39.6353 24.4209L39.4766 24.8726H33.9712L34.0688 24.4575C34.7606 24.4412 35.2651 24.2826 35.5825 23.9814C35.8918 23.6803 36.1969 22.9276 36.498 21.7231L39.916 8.33203L39.8916 8.34424C37.9303 9.91488 36.8561 11.2414 36.6689 12.3237L36.1685 12.2505C36.2417 11.6808 36.4289 11.1519 36.73 10.6636C37.0392 10.1753 37.5194 9.6626 38.1704 9.12549C38.2925 9.02783 38.4674 8.89355 38.6953 8.72266C39.6556 7.9821 40.2456 7.17643 40.4653 6.30566L41.1978 3.4248C41.2466 3.22135 41.3076 3.08301 41.3809 3.00977C41.4541 2.93652 41.5762 2.8999 41.7471 2.8999C42.1133 2.8999 42.3737 2.92839 42.5283 2.98535C42.6911 3.03418 42.7725 3.1237 42.7725 3.25391C42.7725 3.30273 42.7562 3.39225 42.7236 3.52246C42.6992 3.64453 42.6667 3.79508 42.626 3.97412L41.0146 10.0288C41.6413 8.90576 42.2638 8.07568 42.8823 7.53857C43.509 6.99333 44.1559 6.7207 44.8232 6.7207C45.637 6.7207 46.2881 7.04215 46.7764 7.68506C47.2728 8.31982 47.521 9.17432 47.521 10.2485C47.521 11.16 47.3298 12.1366 46.9473 13.1782C46.5729 14.2118 46.0562 15.168 45.397 16.0469C44.811 16.82 44.1844 17.4019 43.5171 17.7925C42.8498 18.1831 42.1499 18.3784 41.4175 18.3784C40.9536 18.3784 40.563 18.2726 40.2456 18.061C39.9282 17.8494 39.68 17.528 39.501 17.0967L38.2192 21.9795ZM39.8672 16.0225C39.8672 16.5758 39.9893 17.0153 40.2334 17.3408C40.4857 17.6663 40.8153 17.8291 41.2222 17.8291C41.7023 17.8291 42.1825 17.6175 42.6626 17.1943C43.1427 16.7712 43.5944 16.1567 44.0176 15.3511C44.5303 14.3989 44.9494 13.3369 45.2749 12.165C45.6086 10.9932 45.7754 10.0125 45.7754 9.22314C45.7754 8.60465 45.6533 8.14079 45.4092 7.83154C45.1732 7.51416 44.8273 7.35547 44.3716 7.35547C43.981 7.35547 43.57 7.55078 43.1387 7.94141C42.7074 8.32389 42.2598 8.89355 41.7959 9.65039C41.1937 10.6514 40.7217 11.7174 40.3799 12.8486C40.0381 13.9798 39.8672 15.0378 39.8672 16.0225ZM52.5259 18.354C51.4761 18.354 50.6582 18.0285 50.0723 17.3774C49.4945 16.7264 49.2056 15.819 49.2056 14.6553C49.2056 13.695 49.3602 12.751 49.6694 11.8232C49.9787 10.8955 50.4303 10.0207 51.0244 9.19873C51.6022 8.40934 52.2451 7.79492 52.9531 7.35547C53.6693 6.91602 54.3854 6.69629 55.1016 6.69629C56.07 6.69629 56.839 7.08285 57.4087 7.85596C57.9865 8.62093 58.2754 9.65039 58.2754 10.9443C58.2754 11.8477 58.1086 12.7673 57.7749 13.7031C57.4412 14.639 56.9652 15.5138 56.3467 16.3276C55.8665 16.9705 55.2928 17.471 54.6255 17.8291C53.9582 18.179 53.2583 18.354 52.5259 18.354ZM50.8535 15.6807C50.8535 16.3643 51.0081 16.9014 51.3174 17.292C51.6348 17.6826 52.0701 17.8779 52.6235 17.8779C53.12 17.8779 53.5798 17.703 54.0029 17.353C54.4342 17.0031 54.8005 16.5026 55.1016 15.8516C55.5573 14.8831 55.9235 13.8293 56.2002 12.6899C56.485 11.5425 56.6274 10.5374 56.6274 9.6748C56.6274 8.88542 56.485 8.27913 56.2002 7.85596C55.9235 7.43278 55.5247 7.22119 55.0039 7.22119C54.5075 7.22119 54.0314 7.44499 53.5757 7.89258C53.1281 8.33203 52.6927 8.99935 52.2695 9.89453C51.8464 10.8385 51.5046 11.8517 51.2441 12.9341C50.9837 14.0164 50.8535 14.932 50.8535 15.6807ZM61.5591 10.1509C62.1857 9.03597 62.8815 8.18148 63.6465 7.5874C64.4196 6.99333 65.2171 6.69629 66.0391 6.69629C66.9831 6.69629 67.748 7.07064 68.334 7.81934C68.9199 8.56803 69.2129 9.55273 69.2129 10.7734C69.2129 12.7998 68.6351 14.5698 67.4795 16.0835C66.332 17.5972 64.9933 18.354 63.4634 18.354C62.438 18.354 61.6527 18.0366 61.1074 17.4019C60.5622 16.7671 60.2896 15.8516 60.2896 14.6553C60.2896 13.5648 60.4808 12.2301 60.8633 10.6514C61.2458 9.07259 61.7788 7.45719 62.4624 5.80518C62.8042 4.99951 63.1785 4.2915 63.5854 3.68115C64.0005 3.06266 64.3993 2.611 64.7817 2.32617C65.2131 2.00065 65.8153 1.70768 66.5884 1.44727C67.3615 1.18685 67.8783 0.979329 68.1387 0.824707C68.3177 0.718913 68.4967 0.556152 68.6758 0.336426C68.863 0.108561 69.0013 -0.00537109 69.0908 -0.00537109C69.1722 0.00276693 69.2292 0.027181 69.2617 0.0678711C69.2943 0.108561 69.3105 0.169596 69.3105 0.250977C68.9769 1.7321 67.9393 2.79004 66.1978 3.4248C65.7583 3.58757 65.4287 3.72184 65.209 3.82764C64.3138 4.24268 63.5692 4.96696 62.9751 6.00049C62.381 7.03402 61.909 8.41748 61.5591 10.1509ZM61.791 15.5708C61.791 16.3195 61.9416 16.8932 62.2427 17.292C62.5438 17.6826 62.9832 17.8779 63.561 17.8779C64.0575 17.8779 64.5091 17.7111 64.916 17.3774C65.3229 17.0356 65.6973 16.5189 66.0391 15.8271C66.4948 14.9157 66.861 13.8984 67.1377 12.7754C67.4225 11.6442 67.5649 10.6107 67.5649 9.6748C67.5649 8.86914 67.4307 8.25879 67.1621 7.84375C66.8936 7.42871 66.4948 7.22119 65.9658 7.22119C65.4613 7.22119 64.973 7.44906 64.501 7.90479C64.0371 8.36051 63.6058 9.02376 63.207 9.89453C62.7757 10.8548 62.4299 11.8599 62.1694 12.9097C61.9172 13.9595 61.791 14.8465 61.791 15.5708ZM83.3242 14.4966L82.7993 15.5708C82.3029 16.5718 81.8105 17.2879 81.3223 17.7192C80.8421 18.1424 80.2847 18.354 79.6499 18.354C79.1372 18.354 78.7425 18.2035 78.4658 17.9023C78.1891 17.5931 78.0508 17.1496 78.0508 16.5718C78.0508 16.1567 78.1891 15.5016 78.4658 14.6064C78.5065 14.4762 78.535 14.3826 78.5513 14.3257L79.0762 12.6533H75.0967L73.3755 18H71.6055L74.4253 8.979C74.4985 8.75928 74.5514 8.5599 74.584 8.38086C74.6247 8.19368 74.645 8.04313 74.645 7.9292C74.645 7.72575 74.6003 7.57113 74.5107 7.46533C74.4212 7.3514 74.291 7.29443 74.1201 7.29443C73.7051 7.29443 73.286 7.55485 72.8628 8.07568C72.4478 8.59652 71.9513 9.47949 71.3735 10.7246L70.9463 10.5049L71.4712 9.43066C71.9757 8.41341 72.4681 7.69727 72.9482 7.28223C73.4284 6.85905 73.9858 6.64746 74.6206 6.64746C75.1414 6.64746 75.5361 6.80208 75.8047 7.11133C76.0814 7.41243 76.2197 7.85189 76.2197 8.42969C76.2197 8.87728 76.0814 9.54053 75.8047 10.4194C75.7721 10.5252 75.7437 10.6107 75.7192 10.6758L75.3042 12.0308H79.2959L80.895 7.00146H82.6772L79.8452 16.0225C79.7638 16.3154 79.7069 16.5474 79.6743 16.7183C79.6418 16.881 79.6255 17.0234 79.6255 17.1455C79.6255 17.3164 79.6702 17.4507 79.7598 17.5483C79.8574 17.646 79.9876 17.6948 80.1504 17.6948C80.5573 17.6948 80.9683 17.4425 81.3833 16.938C81.7983 16.4334 82.3029 15.5464 82.897 14.2769L83.3242 14.4966ZM92.2109 14.9238C91.5355 16.0957 90.8153 16.9624 90.0503 17.5239C89.2935 18.0773 88.4552 18.354 87.5356 18.354C86.73 18.354 86.0993 18.0936 85.6436 17.5728C85.1878 17.0438 84.96 16.3195 84.96 15.3999C84.96 14.6593 85.0861 13.8822 85.3384 13.0684C85.5907 12.2464 85.9487 11.4652 86.4126 10.7246C87.1694 9.49577 88.0076 8.51921 88.9272 7.79492C89.8468 7.0625 90.681 6.69629 91.4297 6.69629C91.9831 6.69629 92.4307 6.86719 92.7725 7.20898C93.1143 7.54264 93.2852 7.9821 93.2852 8.52734C93.2852 9.5446 92.7765 10.4927 91.7593 11.3716C90.742 12.2505 89.208 13.0602 87.1572 13.8008L86.9619 14.6431C86.8887 14.9523 86.8317 15.2371 86.791 15.4976C86.7585 15.758 86.7381 15.994 86.73 16.2056C86.73 16.7264 86.8398 17.117 87.0596 17.3774C87.2793 17.6297 87.613 17.7559 88.0605 17.7559C88.6221 17.7559 89.208 17.5036 89.8184 16.999C90.4368 16.4863 91.092 15.7132 91.7837 14.6797L92.2109 14.9238ZM87.3403 13.2026C88.6831 12.6493 89.798 11.8843 90.6851 10.9077C91.5721 9.92301 92.0156 9.01969 92.0156 8.19775C92.0156 7.88851 91.9342 7.6403 91.7715 7.45312C91.6087 7.26595 91.3971 7.17236 91.1367 7.17236C90.4857 7.17236 89.8062 7.72575 89.0981 8.83252C88.3901 9.93929 87.8042 11.396 87.3403 13.2026ZM101.781 14.9238C101.106 16.0957 100.386 16.9624 99.6206 17.5239C98.8638 18.0773 98.0256 18.354 97.106 18.354C96.3003 18.354 95.6696 18.0936 95.2139 17.5728C94.7581 17.0438 94.5303 16.3195 94.5303 15.3999C94.5303 14.6593 94.6564 13.8822 94.9087 13.0684C95.161 12.2464 95.519 11.4652 95.9829 10.7246C96.7397 9.49577 97.578 8.51921 98.4976 7.79492C99.4172 7.0625 100.251 6.69629 101 6.69629C101.553 6.69629 102.001 6.86719 102.343 7.20898C102.685 7.54264 102.855 7.9821 102.855 8.52734C102.855 9.5446 102.347 10.4927 101.33 11.3716C100.312 12.2505 98.7783 13.0602 96.7275 13.8008L96.5322 14.6431C96.459 14.9523 96.402 15.2371 96.3613 15.4976C96.3288 15.758 96.3084 15.994 96.3003 16.2056C96.3003 16.7264 96.4102 17.117 96.6299 17.3774C96.8496 17.6297 97.1833 17.7559 97.6309 17.7559C98.1924 17.7559 98.7783 17.5036 99.3887 16.999C100.007 16.4863 100.662 15.7132 101.354 14.6797L101.781 14.9238ZM96.9106 13.2026C98.2534 12.6493 99.3683 11.8843 100.255 10.9077C101.142 9.92301 101.586 9.01969 101.586 8.19775C101.586 7.88851 101.505 7.6403 101.342 7.45312C101.179 7.26595 100.967 7.17236 100.707 7.17236C100.056 7.17236 99.3765 7.72575 98.6685 8.83252C97.9604 9.93929 97.3745 11.396 96.9106 13.2026Z" fill="#F5F3EB"/>
</svg>
