<svg width="25" height="28" viewBox="0 0 25 28" fill="none" xmlns="http://www.w3.org/2000/svg">
<path fill-rule="evenodd" clip-rule="evenodd" d="M12.0889 0.577683C11.8424 0.680869 6.62703 5.76527 6.46822 6.05721C6.08132 6.76849 6.61587 7.61264 7.45318 7.61264C7.88979 7.61264 8.03281 7.50091 9.74386 5.82321L11.3611 4.23747L11.415 19.2388L11.5647 19.4878C11.6611 19.6525 11.8002 19.7893 11.9679 19.8844C12.1357 19.9796 12.3262 20.0297 12.5202 20.0297C12.7141 20.0297 12.9046 19.9796 13.0724 19.8844C13.2402 19.7893 13.3792 19.6525 13.4756 19.4878L13.6253 19.2388L13.6792 4.23747L15.2965 5.82321C17.0767 7.56872 17.1644 7.63447 17.6718 7.60289C18.4723 7.55306 18.9447 6.74207 18.5721 6.05721C18.4037 5.74776 13.1954 0.678812 12.9397 0.575522C12.6883 0.474023 12.3344 0.47492 12.0889 0.577683ZM0.741129 19.1706C0.475468 19.2614 0.247057 19.459 0.126679 19.7022C-0.0237798 20.0062 -0.0482543 24.1415 0.0968676 24.7487C0.409969 26.0591 1.58917 27.1629 2.94265 27.4125C3.56718 27.5277 21.4649 27.5298 22.0796 27.4148C23.363 27.1746 24.3905 26.3017 24.8556 25.0564L25 24.6696V19.8112L24.8483 19.5869C24.47 19.0277 23.6555 18.9581 23.16 19.4427C22.8256 19.7698 22.8173 19.8345 22.817 22.1162C22.8166 24.6301 22.7867 24.7491 22.0542 25.1459L21.7655 25.3023H3.27483L2.9861 25.1459C2.25364 24.7491 2.22367 24.6301 2.22329 22.1162C2.22297 19.8345 2.21467 19.7698 1.88033 19.4427C1.56739 19.1367 1.13935 19.0344 0.741129 19.1706Z" fill="#A6825D"/>
</svg>
